<svg width="360" height="658" viewBox="0 0 360 658" fill="none" xmlns="http://www.w3.org/2000/svg">
<path d="M355.3 252.479H354.419C353.381 252.476 352.386 252.062 351.652 251.328C350.919 250.595 350.505 249.6 350.502 248.562V151.649C350.505 150.611 350.919 149.616 351.652 148.882C352.386 148.148 353.381 147.735 354.419 147.732H355.3C356.338 147.735 357.332 148.149 358.066 148.883C358.8 149.617 359.214 150.611 359.217 151.649V248.562C359.214 249.6 358.8 250.594 358.066 251.328C357.332 252.062 356.338 252.476 355.3 252.479Z" fill="#4285F4"/>
<path d="M355.3 142.998H354.419C353.381 142.995 352.386 142.581 351.652 141.847C350.919 141.113 350.505 140.119 350.502 139.081V61.7808C350.505 60.7428 350.919 59.7484 351.652 59.0144C352.386 58.2805 353.381 57.8667 354.419 57.8638H355.3C356.338 57.8669 357.332 58.2808 358.066 59.0146C358.8 59.7485 359.214 60.7429 359.217 61.7808V139.081C359.214 140.119 358.8 141.113 358.066 141.847C357.332 142.581 356.338 142.995 355.3 142.998Z" fill="#F9BC15"/>
<path d="M355.3 53.4961H354.419C353.381 53.4932 352.386 53.0794 351.652 52.3455C350.919 51.6115 350.505 50.6171 350.502 49.5791V4.66406C350.505 3.6261 350.919 2.63141 351.652 1.89746C352.386 1.16351 353.381 0.749973 354.419 0.74707H355.3C356.338 0.750235 357.332 1.16381 358.066 1.89771C358.8 2.6316 359.214 3.62618 359.217 4.66406V49.5791C359.214 50.617 358.8 51.6113 358.066 52.3452C357.332 53.0791 356.338 53.4929 355.3 53.4961Z" fill="#34A853"/>
<path d="M5.08508 657.479H4.2041C3.16614 657.476 2.17145 657.063 1.4375 656.329C0.703548 655.595 0.290012 654.6 0.287109 653.562V556.649C0.290012 555.611 0.703548 554.617 1.4375 553.883C2.17145 553.149 3.16614 552.735 4.2041 552.732H5.08508C6.12296 552.735 7.11742 553.149 7.85132 553.883C8.58521 554.617 8.99891 555.611 9.00208 556.649V653.562C8.99891 654.6 8.58521 655.594 7.85132 656.328C7.11742 657.062 6.12296 657.476 5.08508 657.479Z" fill="#34A853"/>
<path d="M5.08508 547.998H4.2041C3.16614 547.995 2.17145 547.581 1.4375 546.848C0.703548 546.114 0.290012 545.119 0.287109 544.081V466.781C0.290012 465.743 0.703548 464.748 1.4375 464.015C2.17145 463.281 3.16614 462.867 4.2041 462.864H5.08508C6.12296 462.867 7.11742 463.281 7.85132 464.015C8.58521 464.749 8.99891 465.743 9.00208 466.781V544.081C8.99891 545.119 8.58521 546.113 7.85132 546.847C7.11742 547.581 6.12296 547.995 5.08508 547.998Z" fill="#F9BC15"/>
<path d="M5.08508 458.496H4.2041C3.16614 458.493 2.17145 458.079 1.4375 457.345C0.703548 456.612 0.290012 455.617 0.287109 454.579V409.664C0.290012 408.626 0.703548 407.631 1.4375 406.897C2.17145 406.164 3.16614 405.75 4.2041 405.747H5.08508C6.12296 405.75 7.11742 406.164 7.85132 406.898C8.58521 407.632 8.99891 408.626 9.00208 409.664V454.579C8.99891 455.617 8.58521 456.611 7.85132 457.345C7.11742 458.079 6.12296 458.493 5.08508 458.496Z" fill="#EA4335"/>
</svg>
