<?xml version="1.0" encoding="UTF-8" standalone="no"?>
<!-- Created with Inkscape (http://www.inkscape.org/) -->

<svg
   width="17.999998mm"
   height="201.00002mm"
   viewBox="0 0 17.999998 201.00002"
   version="1.1"
   id="svg2590"
   xml:space="preserve"
   xmlns="http://www.w3.org/2000/svg"
   xmlns:svg="http://www.w3.org/2000/svg"><defs
     id="defs2587" /><g
     id="layer1"><g
       style="fill:none"
       id="g2603"
       transform="matrix(0.26458333,0,0,0.26458333,5.7224448,3.4590551)"><path
         d="m 11.2419,148.602 h 2.4811 c 2.9218,-0.009 5.7215,-1.173 7.7876,-3.239 2.066,-2.067 3.2306,-4.866 3.2393,-7.788 V 11.1289 C 24.7412,8.20704 23.5766,5.40739 21.5106,3.34131 19.4445,1.27523 16.6448,0.110756 13.723,0.102051 H 11.2419 C 8.32002,0.110756 5.52036,1.27523 3.45428,3.34131 1.38821,5.40739 0.22361,8.20704 0.214905,11.1289 V 137.576 c 0.008969,2.922 1.173695,5.721 3.239745,7.787 2.06605,2.066 4.86554,3.23 7.78725,3.239 z"
         fill="#34a853"
         id="path2594" /></g><g
       style="fill:none"
       id="g2614"
       transform="matrix(0.26458333,0,0,0.26458333,5.7263235,48.320565)"><path
         d="m 11.2419,240.577 h 2.4811 c 2.9218,-0.009 5.7215,-1.173 7.7876,-3.239 2.066,-2.066 3.2306,-4.866 3.2393,-7.788 V 11.9438 C 24.7412,9.02198 23.5766,6.22233 21.5106,4.15625 19.4445,2.09017 16.6448,0.925697 13.723,0.916992 H 11.2419 C 8.32002,0.925697 5.52036,2.09017 3.45428,4.15625 1.38821,6.22233 0.22361,9.02198 0.214905,11.9438 V 229.55 c 0.008705,2.922 1.173305,5.722 3.239375,7.788 2.06608,2.066 4.86574,3.23 7.78762,3.239 z"
         fill="#f9bc15"
         id="path2605" /></g><g
       style="fill:none"
       id="g2625"
       transform="matrix(0.26458333,0,0,0.26458333,5.7441411,119.00546)"><path
         d="m 11.2419,295.791 h 2.4811 c 2.9218,-0.009 5.7215,-1.173 7.7876,-3.239 2.066,-2.066 3.2306,-4.866 3.2393,-7.788 V 11.929 C 24.7412,9.00709 23.5766,6.20744 21.5106,4.14136 19.4445,2.07528 16.6448,0.910805 13.723,0.9021 H 11.2419 C 8.32002,0.910805 5.52036,2.07528 3.45428,4.14136 1.38821,6.20744 0.22361,9.00709 0.214905,11.929 v 272.834 c 0.008441,2.922 1.172905,5.722 3.239015,7.788 2.06611,2.067 4.86593,3.231 7.78798,3.24 z"
         fill="#4285f4"
         id="path2616" /></g></g></svg>
