<svg width="22" height="617" viewBox="0 0 22 617" fill="none" xmlns="http://www.w3.org/2000/svg">
<path d="M9.58899 616.251H11.746C14.2869 616.243 16.7216 615.231 18.5183 613.434C20.315 611.637 21.3277 609.203 21.3351 606.662V369.415C21.3277 366.874 20.315 364.439 18.5183 362.643C16.7216 360.846 14.2869 359.833 11.746 359.826H9.58899C7.0481 359.833 4.61346 360.846 2.81677 362.643C1.02008 364.439 0.00738712 366.874 0 369.415V606.662C0.00738712 609.203 1.02008 611.637 2.81677 613.434C4.61346 615.231 7.0481 616.243 9.58899 616.251Z" fill="#4285F4"/>
<path d="M9.58899 348.239H11.746C14.2869 348.231 16.7216 347.219 18.5183 345.422C20.315 343.625 21.3277 341.191 21.3351 338.65V149.428C21.3277 146.887 20.315 144.452 18.5183 142.656C16.7216 140.859 14.2869 139.846 11.746 139.839H9.58899C7.0481 139.846 4.61346 140.859 2.81677 142.656C1.02008 144.452 0.00738712 146.887 0 149.428V338.651C0.00765081 341.192 1.02048 343.626 2.81714 345.422C4.6138 347.219 7.04827 348.231 9.58899 348.239Z" fill="#F9BC15"/>
<path d="M9.58899 129.132H11.746C14.2868 129.124 16.7214 128.112 18.5181 126.315C20.3147 124.518 21.3274 122.084 21.3351 119.543V9.58887C21.3277 7.04798 20.315 4.61334 18.5183 2.81665C16.7216 1.01996 14.2869 0.00738712 11.746 0H9.58899C7.0481 0.00738712 4.61346 1.01996 2.81677 2.81665C1.02008 4.61334 0.00738712 7.04798 0 9.58887V119.543C0.00764951 122.084 1.02039 124.518 2.81702 126.315C4.61365 128.112 7.04818 129.124 9.58899 129.132Z" fill="#34A853"/>
</svg>
