<svg width="10" height="253" viewBox="0 0 10 253" fill="none" xmlns="http://www.w3.org/2000/svg">
<path d="M5.08508 252.479H4.2041C3.16614 252.476 2.17145 252.063 1.4375 251.329C0.703548 250.595 0.290012 249.6 0.287109 248.562V151.649C0.290012 150.611 0.703548 149.617 1.4375 148.883C2.17145 148.149 3.16614 147.735 4.2041 147.732H5.08508C6.12296 147.735 7.11742 148.149 7.85132 148.883C8.58521 149.617 8.99891 150.611 9.00208 151.649V248.562C8.99891 249.6 8.58521 250.594 7.85132 251.328C7.11742 252.062 6.12296 252.476 5.08508 252.479Z" fill="#34A853"/>
<path d="M5.08508 142.998H4.2041C3.16614 142.995 2.17145 142.581 1.4375 141.848C0.703548 141.114 0.290012 140.119 0.287109 139.081V61.7809C0.290012 60.7429 0.703548 59.7485 1.4375 59.0145C2.17145 58.2806 3.16614 57.8668 4.2041 57.8639H5.08508C6.12296 57.8671 7.11742 58.2809 7.85132 59.0148C8.58521 59.7487 8.99891 60.743 9.00208 61.7809V139.081C8.99891 140.119 8.58521 141.113 7.85132 141.847C7.11742 142.581 6.12296 142.995 5.08508 142.998Z" fill="#F9BC15"/>
<path d="M5.08508 53.4961H4.2041C3.16614 53.4932 2.17145 53.0794 1.4375 52.3455C0.703548 51.6115 0.290012 50.6171 0.287109 49.5791V4.66406C0.290012 3.6261 0.703548 2.63141 1.4375 1.89746C2.17145 1.16351 3.16614 0.749973 4.2041 0.74707H5.08508C6.12296 0.750235 7.11742 1.16381 7.85132 1.89771C8.58521 2.6316 8.99891 3.62618 9.00208 4.66406V49.5791C8.99891 50.617 8.58521 51.6113 7.85132 52.3452C7.11742 53.0791 6.12296 53.4929 5.08508 53.4961Z" fill="#EA4335"/>
</svg>
