<svg width="10" height="253" viewBox="0 0 10 253" fill="none" xmlns="http://www.w3.org/2000/svg">
<path d="M5.30005 252.479H4.41907C3.38111 252.476 2.38642 252.062 1.65247 251.328C0.918514 250.595 0.504978 249.6 0.502075 248.562V151.649C0.504978 150.611 0.918514 149.616 1.65247 148.882C2.38642 148.148 3.38111 147.735 4.41907 147.732H5.30005C6.33793 147.735 7.33239 148.149 8.06628 148.883C8.80018 149.617 9.21388 150.611 9.21704 151.649V248.562C9.21388 249.6 8.80018 250.594 8.06628 251.328C7.33239 252.062 6.33793 252.476 5.30005 252.479Z" fill="#4285F4"/>
<path d="M5.30005 142.998H4.41907C3.38111 142.995 2.38642 142.581 1.65247 141.847C0.918514 141.113 0.504978 140.119 0.502075 139.081V61.7808C0.504978 60.7428 0.918514 59.7484 1.65247 59.0144C2.38642 58.2805 3.38111 57.8667 4.41907 57.8638H5.30005C6.33793 57.8669 7.33239 58.2808 8.06628 59.0146C8.80018 59.7485 9.21388 60.7429 9.21704 61.7808V139.081C9.21388 140.119 8.80018 141.113 8.06628 141.847C7.33239 142.581 6.33793 142.995 5.30005 142.998Z" fill="#F9BC15"/>
<path d="M5.30005 53.4961H4.41907C3.38111 53.4932 2.38642 53.0794 1.65247 52.3455C0.918514 51.6115 0.504978 50.6171 0.502075 49.5791V4.66406C0.504978 3.6261 0.918514 2.63141 1.65247 1.89746C2.38642 1.16351 3.38111 0.749973 4.41907 0.74707H5.30005C6.33793 0.750235 7.33239 1.16381 8.06628 1.89771C8.80018 2.6316 9.21388 3.62618 9.21704 4.66406V49.5791C9.21388 50.617 8.80018 51.6113 8.06628 52.3452C7.33239 53.0791 6.33793 53.4929 5.30005 53.4961Z" fill="#34A853"/>
</svg>
