<svg width="1318" height="391" viewBox="0 0 1318 391" fill="none" xmlns="http://www.w3.org/2000/svg">
<path d="M0.0679932 0.774902V1.73389C0.0679932 42.3608 16.207 81.3237 44.9346 110.051C73.6621 138.779 112.625 154.918 153.252 154.918C193.879 154.918 232.842 138.779 261.569 110.051C290.297 81.3237 306.436 42.3608 306.436 1.73389V0.774902H0.0679932Z" fill="#F9BC15"/>
<path d="M1305.45 127.269V292.519H985.336L1305.45 127.269Z" fill="#EA4335"/>
<path d="M1121.34 300.19H713.568V389.128H1121.34V300.19Z" fill="#4285F4"/>
<path d="M1317.91 390.247V388.09C1317.91 363.125 1308 339.182 1290.34 321.529C1272.69 303.876 1248.75 293.958 1223.78 293.958C1198.82 293.958 1174.87 303.876 1157.22 321.529C1139.57 339.182 1129.65 363.125 1129.65 388.09V390.247H1317.91Z" fill="#34A853"/>
</svg>
