<svg width="375" height="1111" viewBox="0 0 375 1111" fill="none" xmlns="http://www.w3.org/2000/svg">
<path d="M66.582 8.50806C66.5825 12.0644 65.8021 15.5774 64.2959 18.7991C62.7898 22.0207 60.5945 24.8724 57.8654 27.1526C55.1362 29.4328 51.9396 31.0859 48.5015 31.9951C45.0633 32.9044 41.4675 33.0476 37.9679 32.4147C34.4683 31.7817 31.1504 30.3881 28.2485 28.3322C25.3466 26.2762 22.9316 23.6083 21.174 20.5166C19.4163 17.4249 18.359 13.9851 18.0767 10.4399C17.7943 6.89481 18.2939 3.33089 19.54 0H65.04C66.0609 2.72034 66.5833 5.60245 66.582 8.50806V8.50806Z" fill="#F9BC15"/>
<path d="M339.942 81.087C349.533 81.087 357.308 73.312 357.308 63.721C357.308 54.13 349.533 46.355 339.942 46.355C330.351 46.355 322.576 54.13 322.576 63.721C322.576 73.312 330.351 81.087 339.942 81.087Z" fill="#34A853"/>
<path d="M383.492 1110.98C412.483 1110.98 435.984 1087.48 435.984 1058.49C435.984 1029.5 412.483 1006 383.492 1006C354.501 1006 331 1029.5 331 1058.49C331 1087.48 354.501 1110.98 383.492 1110.98Z" fill="#EA4335"/>
<path d="M-18.5 538.191C10.6877 538.191 34.349 514.53 34.349 485.342C34.349 456.154 10.6877 432.493 -18.5 432.493C-47.6877 432.493 -71.349 456.154 -71.349 485.342C-71.349 514.53 -47.6877 538.191 -18.5 538.191Z" fill="#0086F8"/>
</svg>
