<svg width="1632" height="1062" viewBox="0 0 1632 1062" fill="none" xmlns="http://www.w3.org/2000/svg">
<path d="M1496.92 1061.12C1571.11 1061.12 1631.25 1000.98 1631.25 926.798C1631.25 852.612 1571.11 792.472 1496.92 792.472C1422.73 792.472 1362.59 852.612 1362.59 926.798C1362.59 1000.98 1422.73 1061.12 1496.92 1061.12Z" fill="#EA4335"/>
<path d="M455.477 29.5591C455.479 41.551 452.848 53.3971 447.77 64.2606C442.692 75.1241 435.29 84.74 426.088 92.429C416.885 100.118 406.106 105.692 394.513 108.759C382.92 111.825 370.795 112.308 358.994 110.174C347.194 108.039 336.006 103.34 326.221 96.4075C316.436 89.4749 308.293 80.4783 302.366 70.0532C296.44 59.6281 292.875 48.0289 291.923 36.0748C290.972 24.1208 292.657 12.1035 296.859 0.87207H450.283C453.723 10.0448 455.483 19.7624 455.477 29.5591V29.5591Z" fill="#F9BC15"/>
<path d="M1363.71 247.309C1388.6 247.309 1408.78 227.131 1408.78 202.241C1408.78 177.35 1388.6 157.173 1363.71 157.173C1338.82 157.173 1318.65 177.35 1318.65 202.241C1318.65 227.131 1338.82 247.309 1363.71 247.309Z" fill="#34A853"/>
<path d="M87.26 924.52C135.452 924.52 174.52 885.452 174.52 837.26C174.52 789.068 135.452 750 87.26 750C39.0676 750 0 789.068 0 837.26C0 885.452 39.0676 924.52 87.26 924.52Z" fill="#0086F8"/>
</svg>
