<svg width="1632" height="1759" viewBox="0 0 1632 1759" fill="none" xmlns="http://www.w3.org/2000/svg">
<path d="M1496.85 1758.12C1571.03 1758.12 1631.17 1697.98 1631.17 1623.8C1631.17 1549.61 1571.03 1489.47 1496.85 1489.47C1422.66 1489.47 1362.52 1549.61 1362.52 1623.8C1362.52 1697.98 1422.66 1758.12 1496.85 1758.12Z" fill="#EA4335"/>
<path d="M455.477 29.5591C455.479 41.551 452.848 53.3971 447.77 64.2606C442.692 75.1241 435.29 84.74 426.088 92.429C416.885 100.118 406.106 105.692 394.513 108.759C382.92 111.825 370.795 112.308 358.994 110.174C347.194 108.039 336.006 103.34 326.221 96.4075C316.436 89.4749 308.293 80.4783 302.366 70.0532C296.44 59.6281 292.875 48.0289 291.923 36.0748C290.972 24.1208 292.657 12.1035 296.859 0.87207H450.283C453.723 10.0448 455.483 19.7624 455.477 29.5591V29.5591Z" fill="#F9BC15"/>
<path d="M1363.71 247.309C1388.6 247.309 1408.78 227.131 1408.78 202.241C1408.78 177.35 1388.6 157.173 1363.71 157.173C1338.82 157.173 1318.65 177.35 1318.65 202.241C1318.65 227.131 1338.82 247.309 1363.71 247.309Z" fill="#34A853"/>
<path d="M87.26 1621.52C135.452 1621.52 174.52 1582.45 174.52 1534.26C174.52 1486.07 135.452 1447 87.26 1447C39.0676 1447 0 1486.07 0 1534.26C0 1582.45 39.0676 1621.52 87.26 1621.52Z" fill="#0086F8"/>
</svg>
