<svg width="375" height="768" viewBox="0 0 375 768" fill="none" xmlns="http://www.w3.org/2000/svg">
<path d="M76.259 8.88013C76.2595 12.4365 75.4791 15.9495 73.9729 19.1711C72.4668 22.3928 70.2715 25.2445 67.5424 27.5247C64.8132 29.8048 61.6166 31.4579 58.1785 32.3672C54.7403 33.2764 51.1445 33.4197 47.6449 32.7867C44.1453 32.1538 40.8274 30.7601 37.9255 28.7042C35.0236 26.6483 32.6086 23.9803 30.851 20.8887C29.0933 17.797 28.036 14.3571 27.7537 10.812C27.4713 7.26688 27.9709 3.70296 29.217 0.37207H74.717C75.7379 3.09241 76.2603 5.97452 76.259 8.88013Z" fill="#F9BC15"/>
<path d="M349.619 81.459C359.21 81.459 366.985 73.684 366.985 64.0931C366.985 54.5021 359.21 46.7271 349.619 46.7271C340.028 46.7271 332.253 54.5021 332.253 64.0931C332.253 73.684 340.028 81.459 349.619 81.459Z" fill="#34A853"/>
<path d="M383 767.854C411.991 767.854 435.492 744.353 435.492 715.362C435.492 686.372 411.991 662.87 383 662.87C354.01 662.87 330.508 686.372 330.508 715.362C330.508 744.353 354.01 767.854 383 767.854Z" fill="#EA4335"/>
<path d="M-18.5 399.191C10.6877 399.191 34.349 375.53 34.349 346.342C34.349 317.154 10.6877 293.493 -18.5 293.493C-47.6877 293.493 -71.349 317.154 -71.349 346.342C-71.349 375.53 -47.6877 399.191 -18.5 399.191Z" fill="#0086F8"/>
</svg>
